Coordinates
nRows=119
nColumns=2
inDegrees=yes
endheader
time	ankle_angle_r	
2.71976	  9.515847	
2.79133	  9.512279	
2.8629	  9.448425	
2.93448	  9.463892	
3.00605	  9.487316	
3.07762	  9.445190	
3.14919	  9.448249	
3.22077	  9.451900	
3.29234	  9.445190	
3.36391	  9.400600	
3.43548	  9.465911	
3.50706	  9.414673	
3.57863	  9.521484	
3.6502	  9.454926	
3.72177	  9.393683	
3.79335	  9.435870	
3.86492	  9.429932	
3.93649	  9.438835	
4.00806	  9.453886	
4.07964	  9.468937	
4.15121	  9.467428	
4.22278	  9.384155	
4.29435	  9.483572	
4.36593	  9.483311	
4.4375	  9.475708	
4.50907	  9.514245	
4.58065	  9.490967	
4.65222	  9.460449	
4.72379	  9.414673	
4.79536	  9.460449	
4.86694	  9.466649	
4.93851	  9.457733	
5.01008	  9.427839	
5.08165	  9.492435	
5.15323	  9.485600	
5.2248	  9.455509	
5.29637	  9.470352	
5.36794	  9.434675	
5.43952	  9.466637	
5.51109	  9.484363	
5.58266	  9.521484	
5.65423	  9.578609	
5.72581	  9.544150	
5.79738	  9.567261	
5.86895	  9.475708	
5.94052	  9.561102	
6.0121	  9.536743	
6.08367	  9.488303	
6.15524	  9.495877	
6.22681	  9.532248	
6.29839	  9.464527	
6.36996	  9.443359	
6.44153	  9.413050	
6.5131	  9.399414	
6.58468	  9.352430	
6.65625	  9.385155	
6.72782	  9.339961	
6.7994	  9.399414	
6.87097	  9.339128	
6.94254	  9.369230	
7.01411	  9.399455	
7.08569	  9.368896	
7.15726	  9.354552	
7.22883	  9.399414	
7.3004	  9.491840	
7.37198	  9.401576	
7.44355	  9.502358	
7.51512	  9.489470	
7.58669	  9.446896	
7.65827	  9.508139	
7.72984	  9.414673	
7.80141	  9.539072	
7.87298	  9.518947	
7.94456	  9.366151	
8.01613	  9.460449	
8.0877	  9.494128	
8.15927	  9.445190	
8.23085	  9.429932	
8.30242	  9.502440	
8.37399	  9.529471	
8.44556	  9.414673	
8.51714	  9.464859	
8.58871	  9.393391	
8.66028	  9.445190	
8.73185	  9.409639	
8.80343	  9.368896	
8.875	  9.384155	
8.94657	  9.344036	
9.01815	  9.363030	
9.08972	  9.353638	
9.16129	  9.384155	
9.23286	  9.381876	
9.30444	  9.321257	
9.37601	  9.368896	
9.44758	  9.385186	
9.51915	  9.414058	
9.59073	  9.384155	
9.6623	  9.475708	
9.73387	  9.490967	
9.80544	  9.490967	
9.87702	  9.481140	
9.94859	  9.469019	
10.0202	  9.484486	
10.0917	  9.384155	
10.1633	  9.405478	
10.2349	  9.408816	
10.3065	  9.311823	
10.378	  9.237008	
10.4496	  9.201050	
10.5212	  9.257060	
10.5927	  9.262085	
10.6643	  9.332337	
10.7359	  9.379755	
10.8075	  9.353638	
10.879	  9.364912	
10.9506	  9.342155	
11.0222	  9.411104	
11.0937	  9.387516	
11.1653	  9.350485	
